<svg id="visual" viewBox="0 0 900 600" width="900" height="600" xmlns="http://www.w3.org/2000/svg" xmlns:xlink="http://www.w3.org/1999/xlink" version="1.1"><rect x="0" y="0" width="900" height="600" fill="#002233"></rect><path d="M0 479L30 480.7C60 482.3 120 485.7 180 460.2C240 434.7 300 380.3 360 372.2C420 364 480 402 540 401.5C600 401 660 362 720 343C780 324 840 325 870 325.5L900 326L900 601L870 601C840 601 780 601 720 601C660 601 600 601 540 601C480 601 420 601 360 601C300 601 240 601 180 601C120 601 60 601 30 601L0 601Z" fill="#FF94C1" stroke-linecap="round" stroke-linejoin="miter"></path></svg>