<svg id="visual" viewBox="0 0 900 600" width="900" height="600" xmlns="http://www.w3.org/2000/svg" xmlns:xlink="http://www.w3.org/1999/xlink" version="1.1"><rect x="0" y="0" width="900" height="600" fill="#002233"></rect><path d="M0 539L30 539.8C60 540.7 120 542.3 180 529.5C240 516.7 300 489.3 360 485.3C420 481.3 480 500.7 540 500.5C600 500.3 660 480.7 720 471.2C780 461.7 840 462.3 870 462.7L900 463L900 601L870 601C840 601 780 601 720 601C660 601 600 601 540 601C480 601 420 601 360 601C300 601 240 601 180 601C120 601 60 601 30 601L0 601Z" fill="#FF94C1" stroke-linecap="round" stroke-linejoin="miter"></path></svg>